<svg width="208" height="623" viewBox="0 0 208 623" fill="none" xmlns="http://www.w3.org/2000/svg">
<rect x="0.5" y="608.5" width="200" height="6" fill="#4A0F0F" stroke="white"/>
<g filter="url(#filter0_d_32_11)">
<ellipse cx="175" cy="107" rx="14" ry="27" fill="#8B8787"/>
<ellipse cx="23" cy="107" rx="14" ry="27" fill="#8B8787"/>
<path d="M12 45C12 35.0589 20.0589 27 30 27H168C177.941 27 186 35.0589 186 45V121C186 123.761 183.761 126 181 126H17C14.2386 126 12 123.761 12 121V45Z" fill="#8B8787"/>
<path d="M183 63C183 92.8234 145.616 117 99.5 117C53.3842 117 16 92.8234 16 63C16 33.1766 53.3842 9 99.5 9C145.616 9 183 33.1766 183 63Z" fill="#8B8787"/>
</g>
<g filter="url(#filter1_d_32_11)">
<rect y="125.883" width="201" height="482.117" fill="#4A0F0F"/>
<rect x="0.5" y="126.383" width="200" height="481.117" stroke="#D9D9D9"/>
</g>
<defs>
<filter id="filter0_d_32_11" x="9" y="0" width="191" height="134" filterUnits="userSpaceOnUse" color-interpolation-filters="sRGB">
<feFlood flood-opacity="0" result="BackgroundImageFix"/>
<feColorMatrix in="SourceAlpha" type="matrix" values="0 0 0 0 0 0 0 0 0 0 0 0 0 0 0 0 0 0 127 0" result="hardAlpha"/>
<feOffset dx="7" dy="-5"/>
<feGaussianBlur stdDeviation="2"/>
<feComposite in2="hardAlpha" operator="out"/>
<feColorMatrix type="matrix" values="0 0 0 0 0 0 0 0 0 0 0 0 0 0 0 0 0 0 0.25 0"/>
<feBlend mode="normal" in2="BackgroundImageFix" result="effect1_dropShadow_32_11"/>
<feBlend mode="normal" in="SourceGraphic" in2="effect1_dropShadow_32_11" result="shape"/>
</filter>
<filter id="filter1_d_32_11" x="0" y="125.883" width="208" height="497.117" filterUnits="userSpaceOnUse" color-interpolation-filters="sRGB">
<feFlood flood-opacity="0" result="BackgroundImageFix"/>
<feColorMatrix in="SourceAlpha" type="matrix" values="0 0 0 0 0 0 0 0 0 0 0 0 0 0 0 0 0 0 127 0" result="hardAlpha"/>
<feOffset dx="7" dy="15"/>
<feComposite in2="hardAlpha" operator="out"/>
<feColorMatrix type="matrix" values="0 0 0 0 0 0 0 0 0 0 0 0 0 0 0 0 0 0 0.25 0"/>
<feBlend mode="normal" in2="BackgroundImageFix" result="effect1_dropShadow_32_11"/>
<feBlend mode="normal" in="SourceGraphic" in2="effect1_dropShadow_32_11" result="shape"/>
</filter>
</defs>
</svg>
